<svg xmlns="http://www.w3.org/2000/svg" aria-hidden="true" focusable="false" width="16" fill="#888888" class="ico locked" viewBox="0 0 17 17"><g transform="scale(0.0168) translate(68, 0)"><path d="M448.512 839.68c-22.528 0-40.96-17.408-40.96-39.936v-128c0-21.504 18.432-39.936 40.96-39.936s39.936 18.432 39.936 39.936v128c0 22.528-18.432 39.936-39.936 39.936zM896 543.744v384c0 53.248-43.008 96.256-96.256 96.256h-703.488c-53.248 0-96.256-43.008-96.256-96.256v-384c0-53.248 43.008-96.256 96.256-96.256h31.744v-128c0-176.128 144.384-320.512 321.536-319.488 176.128 1.024 318.464 146.432 318.464 322.56v124.928h31.744c53.248 0 96.256 43.008 96.256 96.256zM192.512 447.488h512v-128c0-140.288-115.712-256-256-256s-256 115.712-256 256v128zM832.512 927.744v-384c0-17.408-15.36-31.744-32.768-31.744h-703.488c-17.408 0-31.744 14.336-31.744 31.744v384c0 17.408 14.336 32.768 31.744 32.768h703.488c17.408 0 32.768-15.36 32.768-32.768z"></path></g></svg>