<svg xmlns="http://www.w3.org/2000/svg" aria-hidden="true" focusable="false" width="78" fill="#3E454F" class="ico webship2" viewBox="0 0 17 17"><g transform="scale(0.0167) translate(-15, 0)"><path d="M186.368 850.944c-1.024 1.024-1.024 1.024-2.048 1.024l-1.024 2.048c-6.144 6.144-10.24 12.288-12.288 17.408l2.048 1.024c3.072 0 6.144 1.024 9.216 3.072 11.264 22.528 7.168 48.128-9.216 73.728-4.096 1.024-7.168 0-9.216-2.048l-4.096-13.312-1.024-7.168c-2.048-5.12-3.072-9.216-4.096-14.336-3.072-7.168-4.096-13.312-4.096-19.456-1.024-1.024-1.024-2.048-1.024-3.072-1.024 0-1.024-1.024-1.024-2.048l-1.024-2.048-2.048-7.168-4.096-15.36c-6.144-6.144-12.288-9.216-19.456-11.264-1.024 1.024-1.024 2.048-2.048 2.048l-11.264 17.408c7.168 4.096 12.288 10.24 14.336 17.408v3.072c2.048 6.144 3.072 10.24 3.072 14.336 1.024 2.048 2.048 4.096 2.048 6.144l3.072 9.216v3.072c1.024 1.024 1.024 2.048 1.024 4.096l1.024 2.048 2.048 8.192c3.072 8.192 5.12 15.36 6.144 21.504 8.192 8.192 17.408 13.312 26.624 14.336l10.24-19.456 2.048-3.072c0-1.024 1.024-2.048 2.048-2.048 1.024-4.096 2.048-8.192 4.096-10.24l3.072-7.168 1.024-3.072 5.12-12.288c8.192 38.912 21.504 57.344 40.96 55.296l2.048-4.096 6.144-8.192c1.024-2.048 1.024-2.048 2.048-3.072l3.072-6.144 1.024-3.072 7.168-12.288c26.624-51.2 24.576-78.848-8.192-84.992-4.096 8.192-8.192 13.312-12.288 18.432v4.096c18.432 1.024 25.6 11.264 21.504 31.744-14.336 51.2-26.624 57.344-35.84 18.432v-3.072c-2.048-2.048-3.072-5.12-3.072-8.192l-1.024-4.096c-2.048-6.144-3.072-11.264-4.096-15.36l-1.024-3.072v-3.072c-2.048-3.072-3.072-5.12-3.072-8.192l-6.144-17.408c-6.144-5.12-12.288-8.192-18.432-10.24zM332.8 857.088c-43.008 19.456-55.296 50.176-37.888 92.16 15.36 23.552 35.84 32.768 63.488 27.648l1.024-2.048 2.048-1.024c1.024-2.048 2.048-2.048 2.048-2.048 1.024-2.048 2.048-2.048 2.048-2.048l1.024-3.072 2.048-1.024 11.264-9.216-1.024-5.12c-43.008 12.288-65.536-1.024-67.584-37.888h13.312l18.432 1.024h38.912l4.096-6.144c-3.072-24.576-14.336-41.984-35.84-50.176-6.144 0-12.288 0-17.408-1.024zM321.536 872.448c17.408 0 29.696 7.168 36.864 19.456 5.12 8.192 2.048 12.288-7.168 12.288h-40.96c-1.024-12.288 1.024-21.504 6.144-29.696 0 0 5.12-2.048 5.12-2.048zM411.648 804.864c-6.144 4.096-10.24 6.144-15.36 8.192l1.024 6.144 1.024 12.288 1.024 4.096c-1.024 7.168-1.024 13.312-1.024 19.456v66.56l-1.024 4.096c1.024 1.024 2.048 2.048 1.024 3.072 0 5.12 0 10.24 0 14.336-1.024 6.144-1.024 12.288 0 16.384 16.384 11.264 32.768 16.384 50.176 15.36 37.888-14.336 54.272-39.936 50.176-78.848-14.336-41.984-39.936-52.224-76.8-29.696v-6.144c0-7.168 0-13.312 1.024-18.432v-5.12l-1.024-4.096 1.024-3.072v-26.624l-4.096-1.024c0 0-7.168 3.072-7.168 3.072zM440.32 870.4c28.672 9.216 40.96 30.72 36.864 64.512-5.12 26.624-23.552 30.72-55.296 13.312 0-4.096 0-6.144-1.024-8.192l1.024-3.072v-36.864l1.024-22.528c3.072-3.072 7.168-4.096 9.216-5.12 0 0 8.192-2.048 8.192-2.048zM559.104 851.968c-35.84 10.24-48.128 30.72-39.936 62.464 8.192 6.144 15.36 10.24 22.528 11.264 4.096-1.024 7.168-2.048 10.24-2.048 14.336-13.312 27.648-14.336 39.936-2.048 6.144 14.336 4.096 26.624-6.144 35.84-19.456-1.024-35.84-7.168-50.176-17.408-10.24 1.024-18.432 6.144-23.552 13.312 43.008 30.72 78.848 26.624 104.448-13.312 2.048-6.144 2.048-11.264 2.048-15.36-9.216-35.84-29.696-41.984-63.488-19.456-5.12 0-9.216-1.024-13.312-2.048-8.192-14.336-7.168-25.6 2.048-35.84h7.168c15.36 3.072 28.672 8.192 38.912 16.384 18.432-5.12 22.528-11.264 13.312-19.456l-3.072-1.024-2.048-1.024-3.072-1.024-2.048-2.048-2.048-1.024-19.456-6.144c0 0-12.288 0-12.288 0zM650.24 807.936c-7.168 5.12-14.336 8.192-20.48 10.24 2.048 7.168 3.072 15.36 3.072 26.624l-1.024 16.384c0 2.048 0 3.072 0 4.096l1.024 2.048-1.024 3.072 1.024 3.072c-1.024 6.144-1.024 12.288 0 16.384l-1.024 5.12v76.8l-1.024 7.168h25.6v-58.368l1.024-18.432c-1.024-5.12-1.024-10.24 0-14.336 6.144-6.144 14.336-9.216 21.504-9.216 32.768 13.312 43.008 41.984 30.72 83.968-6.144-1.024-12.288-3.072-16.384-7.168h-3.072l-12.288 17.408c10.24 6.144 19.456 8.192 29.696 6.144 16.384-14.336 25.6-30.72 27.648-50.176 4.096-24.576-3.072-44.032-20.48-59.392-20.48-12.288-39.936-10.24-57.344 6.144v-5.12l-1.024-2.048 1.024-2.048v-38.912l1.024-18.432c0 0-8.192-1.024-8.192-1.024zM765.952 808.96c-8.192 5.12-13.312 11.264-16.384 18.432 5.12 6.144 10.24 11.264 15.36 14.336 23.552-9.216 23.552-20.48 1.024-32.768zM762.88 862.208l-2.048 2.048-2.048 1.024c-1.024 1.024-2.048 2.048-3.072 2.048l-9.216 9.216c5.12 3.072 8.192 7.168 11.264 11.264v55.296l-2.048 2.048v7.168c1.024 4.096 2.048 8.192 2.048 11.264 11.264 20.48 22.528 20.48 35.84 0-5.12-2.048-8.192-5.12-11.264-8.192-1.024-5.12-1.024-10.24-1.024-13.312v-33.792l1.024-2.048-1.024-4.096v-3.072l1.024-2.048v-8.192c0-6.144 0-12.288-1.024-16.384-5.12-7.168-10.24-11.264-17.408-12.288 0 0-1.024 2.048-1.024 2.048zM823.296 856.064c-2.048 1.024-2.048 1.024-2.048 2.048l-14.336 12.288c3.072 4.096 6.144 7.168 9.216 9.216v5.12c1.024 4.096 2.048 8.192 1.024 12.288v51.2c-3.072 4.096-7.168 7.168-11.264 8.192l-2.048 6.144 2.048 1.024c5.12 1.024 9.216 3.072 12.288 5.12l-1.024 5.12c1.024 3.072 1.024 6.144 0 8.192v12.288c1.024 9.216 1.024 17.408 0 23.552l2.048 1.024 4.096-1.024 3.072-1.024c2.048-2.048 5.12-3.072 8.192-3.072l7.168-3.072v-38.912l7.168 1.024c43.008 2.048 66.56-18.432 69.632-62.464-3.072-40.96-23.552-58.368-60.416-54.272-7.168 6.144-12.288 10.24-18.432 13.312-3.072-8.192-9.216-13.312-15.36-15.36 0 0-1.024 2.048-1.024 2.048zM854.016 872.448c30.72 3.072 45.056 22.528 41.984 59.392-3.072 28.672-20.48 36.864-54.272 21.504v-74.752c4.096-3.072 8.192-5.12 12.288-6.144zM734.208 225.28c-33.792 50.176-74.752 95.232-117.76 165.888-1.024 3.072 1.024 6.144 3.072 8.192 3.072 1.024 6.144 1.024 8.192-1.024 24.576-25.6 142.336-133.12 169.984-151.552 3.072-2.048 3.072-6.144 2.048-9.216-53.248-73.728-117.76-136.192-183.296-205.824-2.048-2.048-6.144-3.072-9.216 0-3.072 2.048-3.072 6.144-1.024 9.216 22.528 26.624 46.080 54.272 66.56 82.944 23.552 31.744 44.032 65.536 61.44 101.376zM257.024 703.488c188.416 72.704 499.712 100.352 599.040-32.768-89.088 94.208-353.28 84.992-475.136 33.792-99.328-43.008-186.368-101.376-216.064-84.992-21.504 13.312-16.384 56.32 1.024 74.752-46.080-6.144-92.16-96.256-20.48-123.904 14.336-5.12 44.032-7.168 78.848 5.12 110.592 39.936 135.168 84.992 286.72 109.568 167.936 27.648 354.304 1.024 406.528-144.384 25.6 284.672-445.44 321.536-660.48 162.816zM244.736 548.864c-23.552-39.936-39.936-81.92-40.96-117.76 53.248 2.048 229.376-1.024 271.36-16.384 26.624-136.192 58.368-293.888 79.872-404.48 6.144-7.168 19.456-2.048 21.504 4.096l-53.248 418.816c75.776 28.672 130.048 45.056 230.4 60.416 4.096-9.216 5.12-13.312 10.24-23.552 12.288-1.024 33.792-1.024 46.080-1.024-1.024 2.048-2.048 22.528-4.096 30.72 16.384 15.36 23.552 21.504 28.672 29.696-26.624 55.296-43.008 86.016-58.368 107.52-79.872 31.744-183.296 28.672-260.096 16.384-64.512-10.24-109.568-25.6-166.912-55.296-34.816-18.432-67.584-35.84-104.448-49.152zM453.632 528.384c5.12-26.624 10.24-55.296 16.384-84.992-26.624 11.264-172.032 18.432-222.208 17.408 39.936 32.768 120.832 56.32 205.824 67.584zM519.168 462.848l-9.216 71.68c78.848 5.12 154.624-1.024 194.56-21.504-77.824-13.312-126.976-27.648-185.344-50.176zM329.728 225.28c34.816 50.176 75.776 95.232 118.784 165.888 1.024 3.072-1.024 6.144-3.072 8.192-3.072 1.024-6.144 1.024-8.192-1.024-24.576-25.6-143.36-133.12-169.984-151.552-3.072-2.048-4.096-6.144-2.048-9.216 53.248-73.728 117.76-136.192 183.296-205.824 2.048-2.048 6.144-3.072 9.216 0 3.072 2.048 3.072 6.144 1.024 9.216-23.552 26.624-46.080 54.272-66.56 82.944-23.552 31.744-44.032 65.536-62.464 101.376z"></path></g></svg>